<svg xmlns="http://www.w3.org/2000/svg" xmlns:xlink="http://www.w3.org/1999/xlink" width="280" height="20" xmlns:v="https://vecta.io/nano"><svg width="20" height="20" viewBox="0 0 30 28"><path fill="#448aff" d="M5.672 24l1.422-1.422-3.672-3.672L2 20.328V22h2v2h1.672zm8.172-14.5c0-.203-.141-.344-.344-.344-.094 0-.187.031-.266.109l-8.469 8.469c-.078.078-.109.172-.109.266 0 .203.141.344.344.344.094 0 .187-.031.266-.109l8.469-8.469c.078-.078.109-.172.109-.266zM13 6.5l6.5 6.5-13 13H0v-6.5zM23.672 8c0 .531-.219 1.047-.578 1.406L20.5 12 14 5.5l2.594-2.578A1.96 1.96 0 0 1 18 2.328c.531 0 1.047.219 1.422.594l3.672 3.656A2.08 2.08 0 0 1 23.672 8z"/></svg><svg width="25" height="25" viewBox="0 0 30 25" x="23"><use xlink:href="#A" fill="#00b0ff"/></svg><svg width="25" height="25" viewBox="0 0 30 25" x="46"><path fill="#00b8d4" d="M10.82 7.5v-1.68h-1.641v1.68h1.641zM10.82 14.18v-5h-1.641v5h1.641zM10 1.68q3.438 0 5.879 2.441t2.441 5.879-2.441 5.879-5.879 2.441-5.879-2.441-2.441-5.879 2.441-5.879 5.879-2.441z"/></svg><svg width="25" height="25" viewBox="0 0 30 25" x="69"><path fill="#00bfa5" d="M8.214 6.429c0 .19-.167.357-.357.357S7.5 6.619 7.5 6.429c0-.77-1.194-1.071-1.786-1.071-.19 0-.357-.167-.357-.357s.167-.357.357-.357c1.038 0 2.5.547 2.5 1.786zm1.786 0c0-2.232-2.266-3.571-4.286-3.571S1.428 4.197 1.428 6.429c0 .714.29 1.462.759 2.009l.681.737c.792.949 1.462 2.065 1.574 3.326h2.545c.112-1.261.781-2.377 1.574-3.326l.681-.737c.469-.547.759-1.295.759-2.009zm1.429 0c0 1.15-.379 2.143-1.15 2.991s-1.786 2.042-1.875 3.237c.324.19.525.547.525.915a1.04 1.04 0 0 1-.279.714 1.04 1.04 0 0 1 .279.714c0 .368-.19.703-.502.904.089.156.145.346.145.525 0 .725-.569 1.071-1.217 1.071-.29.647-.938 1.071-1.641 1.071s-1.35-.424-1.641-1.071c-.647 0-1.217-.346-1.217-1.071 0-.179.056-.368.145-.525A1.07 1.07 0 0 1 2.499 15a1.04 1.04 0 0 1 .279-.714 1.04 1.04 0 0 1-.279-.714c0-.368.201-.725.525-.915-.089-1.194-1.105-2.388-1.875-3.237s-1.15-1.842-1.15-2.991c0-3.036 2.891-5 5.714-5s5.714 1.964 5.714 5z"/></svg><svg width="25" height="25" viewBox="0 0 30 25" x="84"><path fill="#00c853" d="M14.33 8.192c0-.19-.067-.379-.201-.513l-1.016-1.004a.71.71 0 0 0-.502-.212.71.71 0 0 0-.502.212l-4.554 4.542-2.522-2.522a.71.71 0 0 0-.502-.212.71.71 0 0 0-.502.212L3.013 9.699c-.134.134-.201.324-.201.513a.7.7 0 0 0 .201.502l4.04 4.04a.73.73 0 0 0 .502.212c.19 0 .379-.078.513-.212l6.06-6.06a.7.7 0 0 0 .201-.502zM17.143 10c0 4.732-3.839 8.571-8.571 8.571S.001 14.732.001 10 3.84 1.429 8.572 1.429 17.143 5.268 17.143 10z"/></svg><svg width="25" height="25" viewBox="0 0 30 25" x="106"><path fill="#64dd17" d="M10 15.357v-2.143c0-.201-.156-.357-.357-.357H7.5c-.201 0-.357.156-.357.357v2.143c0 .201.156.357.357.357h2.143c.201 0 .357-.156.357-.357zm2.857-7.5c0-2.042-2.143-3.571-4.063-3.571-1.819 0-3.181.781-4.141 2.377-.1.156-.056.357.089.469l1.473 1.116c.056.045.134.067.212.067.1 0 .212-.045.279-.134.525-.67.748-.871.96-1.027.19-.134.558-.268.96-.268.714 0 1.373.458 1.373.949 0 .58-.301.871-.982 1.183-.792.357-1.875 1.283-1.875 2.366v.402c0 .201.156.357.357.357h2.143c.201 0 .357-.156.357-.357h0c0-.257.324-.804.848-1.105.848-.48 2.009-1.127 2.009-2.824zM17.143 10c0 4.732-3.839 8.571-8.571 8.571S.001 14.732.001 10 3.84 1.429 8.572 1.429 17.143 5.268 17.143 10z"/></svg><svg width="25" height="25" viewBox="0 0 30 25" x="129"><path fill="#ff9100" d="M11.429 15.346v-2.121c0-.201-.156-.368-.357-.368H8.929c-.201 0-.357.167-.357.368v2.121c0 .201.156.368.357.368h2.143c.201 0 .357-.167.357-.368zm-.023-4.174l.201-5.123c0-.067-.033-.156-.112-.212-.067-.056-.167-.123-.268-.123H8.772c-.1 0-.201.067-.268.123-.078.056-.112.167-.112.234l.19 5.1c0 .145.167.257.379.257h2.065c.201 0 .368-.112.379-.257zM11.25.748l8.571 15.714c.246.435.234.971-.022 1.406a1.43 1.43 0 0 1-1.228.703H1.428A1.43 1.43 0 0 1 .2 17.868c-.257-.435-.268-.971-.022-1.406L8.749.748a1.42 1.42 0 0 1 2.5 0z"/></svg><svg width="25" height="25" viewBox="0 0 55 40" x="152"><path d="M16 0C7.163 0 0 7.163 0 16s7.163 16 16 16 16-7.163 16-16S24.837 0 16 0zm0 29C8.82 29 3 23.18 3 16S8.82 3 16 3s13 5.82 13 13-5.82 13-13 13zm5-21l-5 5-5-5-3 3 5 5-5 5 3 3 5-5 5 5 3-3-5-5 5-5z" fill="#ff5252"/></svg><svg width="25" height="25" viewBox="0 0 30 25" x="170"><path fill="#ff1744" d="M13.75 5.625c-.039 1.672-1.294 3.084-1.294 3.084 0-3.11-2.456-5.584-2.456-5.584s-.033 1.851-1.277 3.718C7.479 2.489 3.747 0 3.747 0c1.866 6.843-.622 9.331-.622 14.307 0 2.919 2.471 5.692 6.25 5.692 5.598 0 6.681-2.055 7.259-4.371.797-3.188-.397-6.894-2.884-10.004zm1.672 9.701c-.402 1.606-.856 3.424-6.048 3.424-3.13 0-5-2.259-5-4.443 0-1.672.305-3.046.627-4.499.41-1.843.83-3.73.648-6.226C7.577 6.25 8.263 9.785 8.263 9.785s1.794-2.519 2.277-3.689c.369.752.709 3.279.709 5.779 0 0 1.66-1.367 2.905-3.424 1.311 2.351 1.784 4.809 1.267 6.874zm-1.402-4.829l.116.647c.26 1.449.114 3.161-.37 4.364-.049.122-.166.196-.289.196a.32.32 0 0 1-.117-.023.31.31 0 0 1-.173-.406c.365-.906.519-2.181.421-3.346-.627.701-1.418 1.432-3.107 2.234l-.316.149-.114-.33c-.226-.656-.454-1.319-.553-2.244a27.16 27.16 0 0 1-1.166 1.714l-.317.432-.22-.49c-.538-1.203-.948-2.143-1.273-2.969-.301.966-.525 2.083-.525 4.338 0 .173-.141.313-.313.313s-.313-.14-.313-.313c0-2.943.391-4.077.803-5.277l.325-.944.299.844c.322.907.746 1.906 1.345 3.258.395-.558.66-.978.98-1.485l.949-1.486v1.068c0 1.202.216 1.988.454 2.702 1.662-.836 2.284-1.564 2.943-2.331l.531-.616z"/></svg><svg width="25" height="25" viewBox="0 0 30 25" x="190"><path fill="#f50057" d="M18.214 10.714a.72.72 0 0 1-.714.714H15c0 1.395-.301 2.444-.748 3.237l2.321 2.333c.279.279.279.725 0 1.004-.134.145-.324.212-.502.212s-.368-.067-.502-.212l-2.21-2.199S11.897 17.142 10 17.142v-10H8.571v10c-2.02 0-3.493-1.473-3.493-1.473l-2.042 2.31a.72.72 0 0 1-.536.234c-.167 0-.335-.056-.48-.179-.29-.268-.313-.714-.056-1.016l2.254-2.533c-.391-.77-.647-1.763-.647-3.058h-2.5a.72.72 0 0 1-.714-.714.72.72 0 0 1 .714-.714h2.5V6.718L1.64 4.787c-.279-.279-.279-.725 0-1.004s.725-.279 1.004 0l1.931 1.931h9.42l1.931-1.931c.279-.279.725-.279 1.004 0s.279.725 0 1.004l-1.931 1.931v3.281h2.5a.72.72 0 0 1 .714.714zm-5.357-6.428H5.714a3.57 3.57 0 1 1 7.142 0z"/></svg><svg width="25" height="25" viewBox="0 0 30 25" x="210"><use xlink:href="#A" fill="#651fff"/></svg><svg width="25" height="25" viewBox="0 0 30 25" x="233"><path fill="#9e9e9e" d="M8.571 3.571v7.857a5.73 5.73 0 0 1-5.714 5.714h-.714a.72.72 0 0 1-.714-.714v-1.429a.72.72 0 0 1 .714-.714h.714c1.574 0 2.857-1.283 2.857-2.857v-.357A1.07 1.07 0 0 0 4.643 10h-2.5C.96 10 0 9.04 0 7.857V3.571c0-1.183.96-2.143 2.143-2.143h4.286c1.183 0 2.143.96 2.143 2.143zm10 0v7.857a5.73 5.73 0 0 1-5.714 5.714h-.714a.72.72 0 0 1-.714-.714v-1.429a.72.72 0 0 1 .714-.714h.714c1.574 0 2.857-1.283 2.857-2.857v-.357A1.07 1.07 0 0 0 14.643 10h-2.5C10.96 10 10 9.04 10 7.857V3.571c0-1.183.96-2.143 2.143-2.143h4.286c1.183 0 2.143.96 2.143 2.143z"/></svg><defs><path id="A" d="M5.714 13.929v2.143a1.07 1.07 0 0 1-1.071 1.071H1.072a1.07 1.07 0 0 1-1.071-1.071v-2.143a1.07 1.07 0 0 1 1.071-1.071h3.571a1.07 1.07 0 0 1 1.071 1.071zm0-5.715v2.143a1.07 1.07 0 0 1-1.071 1.071H1.072a1.07 1.07 0 0 1-1.071-1.071V8.214a1.07 1.07 0 0 1 1.071-1.071h3.571a1.07 1.07 0 0 1 1.071 1.071zM20 13.929v2.143a1.07 1.07 0 0 1-1.071 1.071H8.215a1.07 1.07 0 0 1-1.071-1.071v-2.143a1.07 1.07 0 0 1 1.071-1.071h10.714A1.07 1.07 0 0 1 20 13.929zM5.714 2.5v2.143a1.07 1.07 0 0 1-1.071 1.071H1.072A1.07 1.07 0 0 1 .001 4.643V2.5a1.07 1.07 0 0 1 1.071-1.071h3.571A1.07 1.07 0 0 1 5.714 2.5zM20 8.214v2.143a1.07 1.07 0 0 1-1.071 1.071H8.215a1.07 1.07 0 0 1-1.071-1.071V8.214a1.07 1.07 0 0 1 1.071-1.071h10.714A1.07 1.07 0 0 1 20 8.214zM20 2.5v2.143a1.07 1.07 0 0 1-1.071 1.071H8.215a1.07 1.07 0 0 1-1.071-1.071V2.5a1.07 1.07 0 0 1 1.071-1.071h10.714A1.07 1.07 0 0 1 20 2.5z"/></defs><svg width="25" height="25" viewBox="0 0 30 28" x="260"><path fill="#a9a9b3" d="M6.641 10.714c0 .089-.045.19-.112.257l-5.201 5.201c-.067.067-.167.112-.257.112s-.19-.045-.257-.112l-.558-.558c-.067-.067-.112-.156-.112-.257 0-.089.045-.19.112-.257l4.386-4.386L.256 6.328c-.067-.067-.112-.167-.112-.257s.045-.19.112-.257l.558-.558c.067-.067.167-.112.257-.112s.19.045.257.112l5.201 5.201c.067.067.112.167.112.257z"/></svg></svg>