<svg xmlns="http://www.w3.org/2000/svg" xmlns:xlink="http://www.w3.org/1999/xlink" width="460" height="20"><style><![CDATA[.B{fill:#a9a9b3}]]></style><svg width="20" height="20" viewBox="0 0 28 28"><path d="M19.719 20.359c-.562.094-1.141.141-1.719.141-5.797 0-10.5-4.703-10.5-10.5 0-1.984.578-3.922 1.625-5.578A9.95 9.95 0 0 0 2 14a10.01 10.01 0 0 0 10 10 10.05 10.05 0 0 0 7.719-3.641zm3.172-1.328C20.938 23.265 16.657 26 12 26 5.391 26 0 20.609 0 14A11.95 11.95 0 0 1 11.547 2.016c.438-.016.797.234.953.609.172.391.063.844-.234 1.125A8.37 8.37 0 0 0 9.5 10a8.51 8.51 0 0 0 8.5 8.5c1.234 0 2.422-.266 3.563-.797a1 1 0 0 1 1.125.203c.297.297.375.75.203 1.125z" class="B"/></svg><svg width="20" height="20" viewBox="0 0 30 30" x="18"><path d="M18 13a7.01 7.01 0 0 0-7-7 7.01 7.01 0 0 0-7 7 7.01 7.01 0 0 0 7 7 7.01 7.01 0 0 0 7-7zm8 13c0 1.094-.906 2-2 2a1.96 1.96 0 0 1-1.406-.594l-5.359-5.344c-1.828 1.266-4.016 1.937-6.234 1.937a11 11 0 1 1 11-11c0 2.219-.672 4.406-1.937 6.234l5.359 5.359c.359.359.578.875.578 1.406z" class="B"/></svg><svg width="20" height="20" viewBox="0 0 35 30" x="39"><path d="M16 0C7.163 0 0 7.163 0 16s7.163 16 16 16 16-7.163 16-16S24.837 0 16 0zm0 29C8.82 29 3 23.18 3 16S8.82 3 16 3s13 5.82 13 13-5.82 13-13 13zm5-21l-5 5-5-5-3 3 5 5-5 5 3 3 5-5 5 5 3-3-5-5 5-5z" class="B"/></svg><svg width="20" height="20" viewBox="0 0 35 30" x="60"><path d="M12 4a4 4 0 1 1 8 0 4 4 0 1 1-8 0zm8.485 3.515a4 4 0 1 1 8 0 4 4 0 1 1-8 0zM26 16a2 2 0 1 1 4 0 2 2 0 1 1-4 0zm-3.515 8.485a2 2 0 1 1 4 0 2 2 0 1 1-4 0zM14 28a2 2 0 1 1 4 0 2 2 0 1 1-4 0zm-8.485-3.515a2 2 0 1 1 4 0 2 2 0 1 1-4 0zm-1-16.97a3 3 0 0 1 6 0 3 3 0 1 1-6 0zM1.75 16a2.25 2.25 0 1 1 4.5 0 2.25 2.25 0 1 1-4.5 0z" class="B"/></svg><svg width="20" height="20" x="80"><use xlink:href="#F" class="B"/></svg><svg width="20" height="20" viewBox="0 0 35 30" x="122"><use xlink:href="#A" class="B"/></svg><svg width="20" height="20" viewBox="0 0 25 23" x="100"><path d="M18.783 14.855l-1.853 1.842c-.279.279-.725.279-1.004 0L10 10.771l-5.926 5.926c-.279.279-.725.279-1.004 0l-1.853-1.842a.72.72 0 0 1 0-1.016l8.281-8.27c.279-.279.725-.279 1.004 0l8.281 8.27a.72.72 0 0 1 0 1.016z" class="B"/></svg><svg width="14" height="14" viewBox="0 0 28 28" x="173"><path d="M24 20.5v-11A1.5 1.5 0 0 0 22.5 8h-11A1.5 1.5 0 0 1 10 6.5v-1A1.5 1.5 0 0 0 8.5 4h-5A1.5 1.5 0 0 0 2 5.5v15A1.5 1.5 0 0 0 3.5 22h19a1.5 1.5 0 0 0 1.5-1.5zm2-11v11c0 1.922-1.578 3.5-3.5 3.5h-19C1.578 24 0 22.422 0 20.5v-15C0 3.578 1.578 2 3.5 2h5C10.422 2 12 3.578 12 5.5V6h10.5C24.422 6 26 7.578 26 9.5z" class="B"/></svg><svg width="14" height="14" viewBox="0 0 28 28" x="155"><use xlink:href="#B" class="B"/></svg><svg width="14" height="14" viewBox="0 0 30 30" x="190"><use xlink:href="#C" class="B"/></svg><svg width="14" height="14" viewBox="0 0 32 32" x="205"><path d="M14 0a14 14 0 0 1 14 14 14.01 14.01 0 0 1-14 14A14.01 14.01 0 0 1 0 14 14 14 0 0 1 14 0zm9.672 21.109C25.125 19.109 26 16.656 26 14c0-6.609-5.391-12-12-12S2 7.391 2 14c0 2.656.875 5.109 2.328 7.109C4.89 18.312 6.25 16 9.109 16c1.266 1.234 2.984 2 4.891 2s3.625-.766 4.891-2c2.859 0 4.219 2.312 4.781 5.109zM20 11c0-3.313-2.688-6-6-6s-6 2.688-6 6 2.688 6 6 6 6-2.688 6-6z" class="B"/></svg><svg width="14" height="14" viewBox="0 0 32 32" x="220"><use xlink:href="#A" class="B"/></svg><svg width="14" height="14" viewBox="0 0 32 32" x="235"><use xlink:href="#D" class="B"/></svg><svg width="14" height="14" viewBox="0 0 25 25" x="248"><use xlink:href="#E" class="B"/></svg><svg width="16" height="16" viewBox="0 0 25 25" x="263"><path d="M12.835 11.987v1.217c0 1.574-2.511 2.154-4.085 2.154-3.058 0-5.357-2.333-5.357-5.413 0-3.025 2.277-5.301 5.301-5.301 1.105 0 3.996.391 3.996 2.165v1.217c0 .1-.078.179-.179.179h-1.317c-.1 0-.179-.078-.179-.179v-.781c0-.703-1.35-1.027-2.266-1.027-2.087 0-3.538 1.507-3.538 3.672 0 2.243 1.518 3.884 3.627 3.884.804 0 2.321-.301 2.321-1.004v-.781c0-.1.078-.179.167-.179h1.328c.089 0 .179.078.179.179zm-4.264-9.13A7.15 7.15 0 0 0 1.428 10a7.15 7.15 0 0 0 7.143 7.143A7.15 7.15 0 0 0 15.714 10a7.15 7.15 0 0 0-7.143-7.143zM17.143 10c0 4.732-3.839 8.571-8.571 8.571S.001 14.732.001 10 3.84 1.429 8.572 1.429h0c4.732 0 8.571 3.839 8.571 8.571z"/></svg><svg width="20" height="20" viewBox="0 0 28 28" x="300"><use xlink:href="#B" class="B"/></svg><svg width="20" height="20" viewBox="0 0 30 28" x="325"><use xlink:href="#C" class="B"/></svg><svg width="20" height="20" viewBox="0 0 30 28" x="345"><use xlink:href="#D" class="B"/></svg><svg width="25" height="23" viewBox="0 0 25 25" x="362"><use xlink:href="#E" class="B"/></svg><svg width="20" height="25" viewBox="0 0 25 25" x="390"><path d="M6 6V2c0-1.1.9-2 2-2h10a2 2 0 0 1 2 2h0v10a2 2 0 0 1-2 2h0-4v4a2 2 0 0 1-2 2h0H2a2 2 0 0 1-2-2h0V8c0-1.1.9-2 2-2h4zm2 0h4a2 2 0 0 1 2 2h0v4h4V2H8v4zM2 8v10h10V8H2z" class="B"/></svg><svg width="20" height="25" viewBox="0 0 25 20" x="415"><path d="M4.286 8.214v2.143a1.07 1.07 0 0 1-1.071 1.071H1.072a1.07 1.07 0 0 1-1.071-1.071V8.214a1.07 1.07 0 0 1 1.071-1.071h2.143a1.07 1.07 0 0 1 1.071 1.071zm5.714 0v2.143a1.07 1.07 0 0 1-1.071 1.071H6.786a1.07 1.07 0 0 1-1.071-1.071V8.214a1.07 1.07 0 0 1 1.071-1.071h2.143A1.07 1.07 0 0 1 10 8.214zm5.714 0v2.143a1.07 1.07 0 0 1-1.071 1.071H12.5a1.07 1.07 0 0 1-1.071-1.071V8.214A1.07 1.07 0 0 1 12.5 7.143h2.143a1.07 1.07 0 0 1 1.071 1.071z" class="B"/></svg><svg width="20" height="25" viewBox="0 0 25 21" x="433"><use xlink:href="#F" class="B"/></svg><defs><path id="A" d="M11 6c-4.875 0-9 2.75-9 6 0 1.719 1.156 3.375 3.156 4.531l1.516.875-.547 1.313a12.76 12.76 0 0 0 .969-.609l.688-.484.828.156c.781.141 1.578.219 2.391.219 4.875 0 9-2.75 9-6s-4.125-6-9-6zm0-2c6.078 0 11 3.578 11 8s-4.922 8-11 8c-.953 0-1.875-.094-2.75-.25-1.297.922-2.766 1.594-4.344 2a11.58 11.58 0 0 1-1.344.25h-.047c-.234 0-.453-.187-.5-.453h0c-.063-.297.141-.484.313-.688.609-.688 1.297-1.297 1.828-2.594C1.625 16.796 0 14.531 0 11.999c0-4.422 4.922-8 11-8zm12.844 18.266c.531 1.297 1.219 1.906 1.828 2.594.172.203.375.391.313.688h0c-.063.281-.297.484-.547.453a11.58 11.58 0 0 1-1.344-.25c-1.578-.406-3.047-1.078-4.344-2-.875.156-1.797.25-2.75.25-2.828 0-5.422-.781-7.375-2.063a20.4 20.4 0 0 0 1.375.063c3.359 0 6.531-.969 8.953-2.719C22.562 17.376 24 14.798 24 12.001c0-.812-.125-1.609-.359-2.375C26.282 11.079 28 13.392 28 16.001c0 2.547-1.625 4.797-4.156 6.266z"/><path id="B" d="M26 15c-1.484-2.297-3.516-4.266-5.953-5.516.625 1.062.953 2.281.953 3.516a7.01 7.01 0 0 1-7 7 7.01 7.01 0 0 1-7-7 6.95 6.95 0 0 1 .953-3.516C5.515 10.734 3.484 12.703 2 15c2.672 4.125 6.984 7 12 7s9.328-2.875 12-7zM14.75 9a.76.76 0 0 0-.75-.75A4.77 4.77 0 0 0 9.25 13a.76.76 0 0 0 .75.75.76.76 0 0 0 .75-.75A3.27 3.27 0 0 1 14 9.75.76.76 0 0 0 14.75 9zM28 15c0 .391-.125.75-.313 1.078C24.812 20.812 19.546 24 14 24S3.187 20.797.313 16.078C.126 15.75 0 15.39 0 15s.125-.75.313-1.078C3.188 9.203 8.454 6 14 6s10.813 3.203 13.687 7.922c.187.328.313.688.313 1.078z"/><path id="C" d="M14 8.5v7c0 .281-.219.5-.5.5h-5c-.281 0-.5-.219-.5-.5v-1c0-.281.219-.5.5-.5H12V8.5c0-.281.219-.5.5-.5h1c.281 0 .5.219.5.5zm6.5 5.5A8.51 8.51 0 0 0 12 5.5 8.51 8.51 0 0 0 3.5 14a8.51 8.51 0 0 0 8.5 8.5 8.51 8.51 0 0 0 8.5-8.5zm3.5 0c0 6.625-5.375 12-12 12S0 20.625 0 14 5.375 2 12 2s12 5.375 12 12z"/><path id="D" d="M5.672 24l1.422-1.422-3.672-3.672L2 20.328V22h2v2h1.672zm8.172-14.5c0-.203-.141-.344-.344-.344-.094 0-.187.031-.266.109l-8.469 8.469c-.078.078-.109.172-.109.266 0 .203.141.344.344.344.094 0 .187-.031.266-.109l8.469-8.469c.078-.078.109-.172.109-.266zM13 6.5l6.5 6.5-13 13H0v-6.5zM23.672 8c0 .531-.219 1.047-.578 1.406L20.5 12 14 5.5l2.594-2.578A1.96 1.96 0 0 1 18 2.328c.531 0 1.047.219 1.422.594l3.672 3.656A2.08 2.08 0 0 1 23.672 8z"/><path id="E" d="M7.376 6.745c-.447.275 1.197 4.242 1.598 4.888.35.569 1.093.742 1.658.394s.745-1.094.395-1.66c-.397-.648-3.205-3.898-3.651-3.622zm-.335-4.343a8.98 8.98 0 0 1 5.918 0c.329.114.765-.115.572-.611l-.332-.855c-.131-.339-.6-.619-.804-.665C11.623.097 10.823 0 10 0a10.89 10.89 0 0 0-2.396.271c-.204.046-.672.326-.803.665l-.332.855c-.193.496.243.726.572.611zm12.057.784l-.613-.672-.67-.613c-.153-.129-.603-.234-.888.051l-1.648 1.647a9.27 9.27 0 0 1 1.155.966c.362.361.677.752.966 1.155l1.647-1.647c.286-.286.181-.735.051-.887zM10 2.9A8.1 8.1 0 0 0 1.899 11c0 4.474 3.626 8.101 8.101 8.101A8.1 8.1 0 0 0 18.1 11c0-4.473-3.627-8.1-8.1-8.1zm0 14.201a6.1 6.1 0 1 1 0-12.2 6.1 6.1 0 1 1 0 12.2z"/><path id="F" d="M4.883 3.438L6.68 1.68 15 10l-8.32 8.32-1.797-1.758 6.602-6.563z"/></defs></svg>